<svg width="14" height="14" viewBox="0 0 14 14" fill="none" xmlns="http://www.w3.org/2000/svg">
<path d="M9.56255 7.25337C9.78567 7.25337 9.98091 7.3667 10.1482 7.59337C10.3156 7.82004 10.4312 8.06561 10.4949 8.33005C10.6065 8.72672 10.6423 9.13282 10.6025 9.54839C10.5626 9.96395 10.4152 10.3417 10.1602 10.6817C9.98491 10.9084 9.78567 11.0217 9.56255 11.0217C9.3235 11.0217 9.12028 10.9084 8.95293 10.6817C8.78559 10.4551 8.66208 10.2095 8.58239 9.94506C8.5027 9.54839 8.48278 9.14228 8.52263 8.72672C8.56247 8.31115 8.70192 7.93338 8.94099 7.59337C9.13224 7.3667 9.33942 7.25337 9.56255 7.25337ZM4.25534 7.25337C4.47847 7.25337 4.6737 7.3667 4.84105 7.59337C5.00839 7.82004 5.1319 8.06561 5.21159 8.33005C5.30722 8.72672 5.33512 9.13282 5.29526 9.54839C5.25542 9.96395 5.10799 10.3417 4.85299 10.6817C4.67768 10.9084 4.47847 11.0217 4.25534 11.0217C4.01627 11.0217 3.81308 10.9084 3.64573 10.6817C3.47839 10.4551 3.35486 10.2095 3.27517 9.94506C3.19548 9.54839 3.17557 9.14228 3.21541 8.72672C3.25526 8.31115 3.39472 7.93338 3.63377 7.59337C3.82502 7.3667 4.03222 7.25337 4.25534 7.25337ZM12.6704 3.7967C13.4195 4.8167 13.794 6.12002 13.794 7.70671C13.794 9.06671 13.6266 10.1528 13.292 10.9651C13.0688 11.4562 12.774 11.8859 12.4074 12.2542C12.0409 12.6226 11.6504 12.9012 11.236 13.0901C11.0288 13.1845 10.8097 13.2742 10.5786 13.3592C10.3475 13.4443 10.0965 13.5151 9.82553 13.5717C9.55458 13.6284 9.30357 13.6709 9.07248 13.6992C8.84137 13.7276 8.62223 13.7512 8.41505 13.7701C8.20785 13.789 7.98871 13.8031 7.75762 13.8126C7.52653 13.822 7.28348 13.8267 7.02848 13.8267H6.4069L5.85705 13.7984L5.28332 13.7559L4.63783 13.6851C4.20752 13.6284 3.78518 13.5245 3.37081 13.3734C2.79705 13.1845 2.24322 12.9012 1.70931 12.5234C1.1754 12.1456 0.780942 11.6262 0.525941 10.9651C0.175313 10.1528 0 9.06671 0 7.70671C0 6.15782 0.374533 4.85447 1.1236 3.7967C0.980162 3.26781 0.908443 2.72002 0.908443 2.15335C0.908443 1.39779 1.05188 0.680003 1.33876 0C1.94439 0 2.46236 0.132223 2.89266 0.396669C3.13173 0.528891 3.37877 0.694169 3.63377 0.892505C3.88876 1.09084 4.16767 1.32223 4.47048 1.58667C5.28332 1.36001 6.13598 1.24667 7.02848 1.24667C7.82537 1.24667 8.59832 1.35056 9.34738 1.55834C9.90522 1.02945 10.4232 0.632782 10.9013 0.368335C11.3316 0.122778 11.8576 0 12.4791 0C12.7501 0.698893 12.8855 1.41668 12.8855 2.15335C12.8855 2.72002 12.8138 3.26781 12.6704 3.7967ZM10.9969 11.6734C11.2679 11.409 11.491 11.0642 11.6663 10.6392C11.8416 10.2142 11.9293 9.71838 11.9293 9.15172C11.9293 8.35839 11.738 7.68781 11.3555 7.14005C11.0049 6.59226 10.4949 6.31836 9.82553 6.31836C9.69802 6.31836 9.50278 6.33254 9.23983 6.36087C8.97684 6.38921 8.63021 6.44114 8.19989 6.51671C8.00863 6.55449 7.80146 6.58283 7.57833 6.6017C7.35521 6.6206 7.13208 6.63004 6.90893 6.63004C6.66988 6.63004 6.43878 6.6206 6.21565 6.6017C5.99253 6.58283 5.78535 6.55449 5.59409 6.51671C5.17972 6.44114 4.84105 6.38921 4.57807 6.36087C4.31511 6.33254 4.11987 6.31836 3.99236 6.31836C3.32299 6.31836 2.80501 6.59226 2.43845 7.14005C2.05595 7.68781 1.8647 8.35839 1.8647 9.15172C1.8647 9.71838 1.95235 10.2142 2.12767 10.6392C2.30298 11.0642 2.5261 11.409 2.79705 11.6734C3.08392 11.919 3.4186 12.1078 3.80111 12.2401C4.21549 12.3912 4.60596 12.4904 4.97254 12.5376C5.3391 12.5848 5.74549 12.6084 6.19176 12.6084H7.60222C8.06442 12.6084 8.47481 12.5848 8.83341 12.5376C9.19201 12.4904 9.57849 12.3912 9.99287 12.2401C10.3754 12.1078 10.7101 11.919 10.9969 11.6734Z" fill="white"/>
</svg>
