<svg width="14" height="14" viewBox="0 0 14 14" fill="none" xmlns="http://www.w3.org/2000/svg">
<path d="M0 3.84471H3.05228V13.8233H0V3.84471ZM11.7102 4.46103C12.3168 4.79364 12.8157 5.29747 13.207 5.97251C13.5983 6.64753 13.794 7.33722 13.794 8.0416V13.8233H10.7123V8.0416C10.7123 7.88506 10.6536 7.70897 10.5362 7.51332C10.4189 7.31767 10.3112 7.19049 10.2134 7.13178C10.0569 7.03395 9.84167 6.98504 9.56773 6.98504C9.29381 6.98504 9.07858 7.02417 8.92207 7.10244L7.66006 7.71877V13.8233H4.57844V3.84471H7.66006V4.3143C8.26661 4.04036 8.9514 3.9132 9.71449 3.93275C10.4776 3.95231 11.1428 4.1284 11.7102 4.46103ZM1.52614 0C1.95659 0 2.31855 0.146745 2.61205 0.440234C2.90555 0.733723 3.05228 1.09569 3.05228 1.52614C3.05228 1.95659 2.90555 2.32345 2.61205 2.62673C2.31855 2.93 1.95659 3.08164 1.52614 3.08164C1.09569 3.08164 0.733723 2.93 0.440234 2.62673C0.146745 2.32345 0 1.95659 0 1.52614C0 1.09569 0.146745 0.733723 0.440234 0.440234C0.733723 0.146745 1.09569 0 1.52614 0Z" fill="white"/>
</svg>
